<?xml version="1.0" encoding="UTF-8" standalone="no"?>
<!-- Created with Inkscape (http://www.inkscape.org/) -->

<svg
   width="67.206535mm"
   height="24.625717mm"
   viewBox="0 0 67.206535 24.625717"
   version="1.1"
   id="svg5"
   sodipodi:docname="drawing.svg"
   inkscape:version="1.1 (c68e22c387, 2021-05-23)"
   xmlns:inkscape="http://www.inkscape.org/namespaces/inkscape"
   xmlns:sodipodi="http://sodipodi.sourceforge.net/DTD/sodipodi-0.dtd"
   xmlns:xlink="http://www.w3.org/1999/xlink"
   xmlns="http://www.w3.org/2000/svg"
   xmlns:svg="http://www.w3.org/2000/svg">
  <sodipodi:namedview
     id="namedview12"
     pagecolor="#ffffff"
     bordercolor="#666666"
     borderopacity="1.0"
     inkscape:pageshadow="2"
     inkscape:pageopacity="0.0"
     inkscape:pagecheckerboard="0"
     inkscape:document-units="mm"
     showgrid="false"
     inkscape:zoom="5.4761849"
     inkscape:cx="126.91317"
     inkscape:cy="46.47396"
     inkscape:window-width="3840"
     inkscape:window-height="2070"
     inkscape:window-x="1920"
     inkscape:window-y="0"
     inkscape:window-maximized="1"
     inkscape:current-layer="layer1" />
  <defs
     id="defs2">
    <linearGradient
       id="linearGradient8021">
      <stop
         style="stop-color:#6cff9f;stop-opacity:1"
         offset="0"
         id="stop8017" />
      <stop
         style="stop-color:#2100fb;stop-opacity:1"
         offset="1"
         id="stop8019" />
    </linearGradient>
    <linearGradient
       xlink:href="#linearGradient8021"
       id="linearGradient8023"
       x1="26.978168"
       y1="25.273422"
       x2="180.58098"
       y2="25.273422"
       gradientUnits="userSpaceOnUse"
       gradientTransform="matrix(0.40228853,0,0,0.40228853,16.568919,8.0419205)" />
  </defs>
  <g
     id="layer1"
     transform="translate(-22.184699,-13.717966)">
    <g
       aria-label="Hello World!"
       transform="scale(0.9917747,1.0082935)"
       id="text1838"
       style="font-size:13.2489px;line-height:1.25;font-family:Z003;-inkscape-font-specification:'Z003, Normal';letter-spacing:0px;word-spacing:0px;fill:url(#linearGradient8023);stroke-width:0.451665">
      <path
         d="m 32.178283,18.321741 c 0.07949,-0.251729 0.119241,-0.423965 0.145738,-0.490209 0.07949,-0.317974 0.158987,-0.622699 0.238481,-0.927423 0.07949,-0.317974 0.158986,-0.635948 0.251729,-0.953921 0.01325,-0.053 0.053,-0.238481 0.105991,-0.49021 l 0.516707,-0.437213 c -0.344471,-0.0265 -0.582952,-0.0265 -0.768436,-0.0265 -1.298392,0 -2.186069,0.23848 -2.901509,0.768436 -0.715441,0.529956 -1.033415,1.139406 -1.033415,1.974086 0,0.211983 0.0265,0.344472 0.105992,0.662445 l 0.993667,-0.331222 c -0.11924,-0.423965 -0.145738,-0.622699 -0.145738,-0.914174 0,-0.72869 0.304725,-1.258646 0.834681,-1.497126 0.331222,-0.132489 0.649196,-0.172236 1.457379,-0.172236 -0.198734,0.649196 -0.211982,0.715441 -0.662445,2.477545 l -0.09274,0.384218 -0.476961,0.503458 0.344472,0.0265 c -0.635948,2.464295 -0.927423,2.822015 -2.345056,2.822015 -0.211982,0 -0.370969,0 -0.702191,-0.0265 l -0.622699,0.861178 c 0.291476,0.03975 0.410716,0.053 0.649196,0.053 0.423965,0 0.755188,-0.03975 1.020166,-0.132489 0.410716,-0.11924 1.073161,-0.649196 1.762103,-1.364637 0.702192,-0.728689 0.741939,-0.808183 1.179153,-2.186069 1.642863,-0.105991 2.119824,-0.132489 2.861762,-0.145737 -0.06624,0.278226 -0.11924,0.463711 -0.132489,0.543205 l -0.304725,1.126156 c -0.463711,1.854846 -0.463711,1.854846 -0.463711,2.027082 0,0.145738 0.132489,0.278227 0.291476,0.278227 0.09274,0 0.225231,-0.0265 0.370969,-0.06624 0.344471,-0.09274 0.556454,-0.132489 2.000584,-0.397467 l 0.23848,-0.331222 c -0.688943,0.06624 -0.914174,0.07949 -1.258646,0.07949 -0.264978,0 -0.423964,-0.132489 -0.423964,-0.35772 0,-0.410716 0,-0.410716 0.847929,-3.709692 0.84793,-2.954505 0.84793,-2.954505 1.006917,-3.206234 0.198733,-0.317974 0.423965,-0.450463 0.794934,-0.450463 0.264978,0 0.410716,0.0265 0.702191,0.132489 l 0.450463,-0.728689 c -0.23848,-0.07949 -0.344471,-0.09274 -0.582952,-0.09274 -0.172235,0 -0.304724,0.01325 -0.437213,0.053 -0.331223,0.105991 -1.006917,0.635947 -1.576619,1.232148 -0.529956,0.569702 -0.715441,0.914174 -0.940672,1.735606 l -0.357721,1.285143 c -0.01325,0.03975 -0.053,0.185485 -0.11924,0.410716 z"
         id="path829" />
      <path
         d="m 41.028527,20.772787 c -1.059912,0.900926 -1.629614,1.232148 -2.133073,1.232148 -0.344471,0 -0.609449,-0.225231 -0.702191,-0.569703 -0.053,-0.211982 -0.06625,-0.35772 -0.06625,-0.741938 0.60945,-0.384218 0.980419,-0.649196 1.762104,-1.232148 0.728689,-0.543205 0.993667,-0.980418 0.993667,-1.576619 0,-0.463711 -0.278227,-0.741938 -0.755187,-0.741938 -0.291476,0 -0.490209,0.06624 -0.808183,0.23848 -0.503458,0.291476 -0.953921,0.649196 -1.218899,0.96717 -0.503458,0.609449 -0.953921,2.066828 -0.953921,3.139989 0,0.781685 0.410716,1.271895 1.08641,1.271895 0.781685,0 1.788602,-0.582952 2.782269,-1.603117 z m -2.861762,-0.556453 c 0.225231,-1.430882 0.821432,-2.517291 1.404383,-2.517291 0.211983,0 0.357721,0.211982 0.357721,0.543204 0,0.662445 -0.384219,1.08641 -1.762104,1.974087 z"
         id="path831" />
      <path
         d="m 44.645435,20.878779 c -0.278227,0.158986 -0.278227,0.158986 -0.847929,0.516707 -0.384218,0.23848 -0.60945,0.344471 -0.755188,0.344471 -0.132489,0 -0.23848,-0.158987 -0.23848,-0.344471 v -0.11924 -0.11924 c 0,-0.238481 0.596201,-2.808767 1.08641,-4.676862 0.516707,-1.960838 0.635947,-2.186069 1.218899,-2.186069 0.198733,0 0.331222,0.01325 0.649196,0.09274 l 0.569703,-0.702191 c -0.278227,-0.06625 -0.410716,-0.07949 -0.596201,-0.07949 -0.529956,0 -0.940672,0.198734 -1.589868,0.781685 -0.582951,0.516708 -0.728689,0.72869 -0.900925,1.20565 -0.105991,0.317974 -0.397467,1.391135 -0.529956,1.974087 l -0.953921,4.146905 c -0.01325,0.07949 -0.0265,0.158987 -0.0265,0.238481 0,0.410716 0.225232,0.808183 0.437214,0.808183 h 0.07949 0.03975 c 0.07949,0.03975 0.503458,-0.25173 2.358304,-1.589869 z"
         id="path833" />
      <path
         d="m 47.825168,20.878779 c -0.278227,0.158986 -0.278227,0.158986 -0.84793,0.516707 -0.384218,0.23848 -0.609449,0.344471 -0.755187,0.344471 -0.132489,0 -0.23848,-0.158987 -0.23848,-0.344471 v -0.11924 -0.11924 c 0,-0.238481 0.5962,-2.808767 1.086409,-4.676862 0.516707,-1.960838 0.635948,-2.186069 1.218899,-2.186069 0.198734,0 0.331223,0.01325 0.649196,0.09274 l 0.569703,-0.702191 c -0.278227,-0.06625 -0.410716,-0.07949 -0.5962,-0.07949 -0.529956,0 -0.940672,0.198734 -1.589869,0.781685 -0.582951,0.516708 -0.728689,0.72869 -0.900925,1.20565 -0.105991,0.317974 -0.397467,1.391135 -0.529956,1.974087 l -0.953921,4.146905 c -0.01325,0.07949 -0.0265,0.158987 -0.0265,0.238481 0,0.410716 0.225231,0.808183 0.437213,0.808183 h 0.07949 0.03975 c 0.07949,0.03975 0.503459,-0.25173 2.358305,-1.589869 z"
         id="path835" />
      <path
         d="m 51.693844,17.142589 c -0.529956,0 -1.377886,0.384218 -2.159571,0.967169 -0.84793,0.635948 -1.44413,2.013833 -1.44413,3.338723 0,0.794934 0.450463,1.311642 1.152654,1.311642 0.370969,0 0.755188,-0.132489 1.351388,-0.450463 0.662445,-0.370969 1.099659,-0.702192 1.338139,-1.006917 0.529956,-0.728689 0.953921,-2.027081 0.953921,-2.941255 0,-0.715441 -0.490209,-1.218899 -1.192401,-1.218899 z m -0.688943,0.622698 c 0.529956,0 0.861179,0.503458 0.861179,1.311641 0,0.569703 -0.185485,1.245397 -0.503459,1.894593 -0.384218,0.755187 -0.861178,1.165903 -1.364636,1.165903 -0.543205,0 -0.887677,-0.490209 -0.887677,-1.245396 0,-1.536873 0.96717,-3.126741 1.894593,-3.126741 z"
         id="path837" />
      <path
         d="m 58.636253,22.813118 0.861179,-0.264978 c 1.947588,-2.795518 2.543789,-3.669945 3.97467,-5.842765 -0.0265,1.589868 -0.172236,4.902093 -0.291476,6.107743 l 0.84793,-0.278227 c 0.450462,-0.688943 0.609449,-0.914174 1.457379,-1.960837 2.517291,-3.073745 3.378469,-4.58412 3.378469,-5.869263 0,-0.370969 -0.05299,-0.582952 -0.198733,-0.874427 -0.185485,-0.105992 -0.225231,-0.11924 -0.529956,-0.211983 -0.370969,0.172236 -0.516707,0.264978 -0.84793,0.543205 0.357721,0.370969 0.49021,0.715441 0.49021,1.258646 0,0.5962 -0.211983,1.298392 -0.635948,2.119824 -0.529956,1.020165 -1.232147,1.960837 -2.848513,3.85543 0.03975,-0.60945 0.06624,-1.020166 0.06624,-1.165903 l 0.07949,-1.868095 c 0.03975,-0.927423 0.06624,-1.523624 0.185484,-3.365221 l -0.768436,0.304725 c -0.609449,1.033414 -2.914758,4.45163 -3.908426,5.803018 0.145738,-1.073161 0.662445,-3.987919 0.980419,-5.577787 0.278227,-0.09274 0.437214,-0.185485 0.688943,-0.423965 -2.570287,0.0265 -2.729274,0.0265 -3.206234,0.185485 -1.139405,0.370969 -1.881344,1.285143 -1.881344,2.331806 0,0.450463 0.105991,0.808183 0.331223,1.192401 l 0.993667,-0.622698 c -0.317973,-0.476961 -0.437214,-0.84793 -0.437214,-1.298392 0,-0.556454 0.264979,-0.953921 0.755188,-1.126157 0.317973,-0.11924 0.662445,-0.145738 1.629615,-0.158987 -0.132489,0.914174 -0.158987,1.139406 -0.278227,1.854846 -0.503459,3.047247 -0.688943,4.186653 -0.702192,4.266146 z"
         id="path839" />
      <path
         d="m 71.196178,17.142589 c -0.529956,0 -1.377885,0.384218 -2.15957,0.967169 -0.84793,0.635948 -1.444131,2.013833 -1.444131,3.338723 0,0.794934 0.450463,1.311642 1.152655,1.311642 0.370969,0 0.755187,-0.132489 1.351388,-0.450463 0.662445,-0.370969 1.099658,-0.702192 1.338139,-1.006917 0.529956,-0.728689 0.95392,-2.027081 0.95392,-2.941255 0,-0.715441 -0.490209,-1.218899 -1.192401,-1.218899 z m -0.688942,0.622698 c 0.529956,0 0.861178,0.503458 0.861178,1.311641 0,0.569703 -0.185485,1.245397 -0.503458,1.894593 -0.384218,0.755187 -0.861179,1.165903 -1.364637,1.165903 -0.543205,0 -0.887676,-0.490209 -0.887676,-1.245396 0,-1.536873 0.96717,-3.126741 1.894593,-3.126741 z"
         id="path841" />
      <path
         d="m 72.931777,22.720376 1.020165,-0.384218 0.993668,-3.775937 c 0.450463,-0.344471 0.755187,-0.463711 1.112908,-0.463711 0.291475,0 0.463711,0.105991 0.702191,0.410715 l 0.397467,-1.258645 c -0.23848,-0.07949 -0.35772,-0.105991 -0.490209,-0.105991 -0.251729,0 -0.516707,0.11924 -0.874427,0.370969 -0.172236,0.132489 -0.344472,0.264978 -0.529956,0.384218 -0.07949,0.06624 -0.172236,0.132489 -0.25173,0.185485 l 0.158987,-0.794934 c 0,-0.07949 -0.07949,-0.145738 -0.172235,-0.145738 -0.172236,0 -1.338139,0.569702 -2.146322,1.046663 l -0.03975,0.35772 c 0.768436,-0.370969 0.781685,-0.384218 0.953921,-0.384218 0.172236,0 0.251729,0.09274 0.251729,0.278227 0,0.185485 -0.132489,0.794934 -0.291476,1.377886 z"
         id="path843" />
      <path
         d="m 79.675441,20.878779 c -0.278227,0.158986 -0.278227,0.158986 -0.84793,0.516707 -0.384218,0.23848 -0.609449,0.344471 -0.755187,0.344471 -0.132489,0 -0.23848,-0.158987 -0.23848,-0.344471 v -0.11924 -0.11924 c 0,-0.238481 0.5962,-2.808767 1.08641,-4.676862 0.516707,-1.960838 0.635947,-2.186069 1.218898,-2.186069 0.198734,0 0.331223,0.01325 0.649196,0.09274 l 0.569703,-0.702191 c -0.278227,-0.06625 -0.410716,-0.07949 -0.5962,-0.07949 -0.529956,0 -0.940672,0.198734 -1.589868,0.781685 -0.582952,0.516708 -0.72869,0.72869 -0.900926,1.20565 -0.105991,0.317974 -0.397467,1.391135 -0.529956,1.974087 l -0.95392,4.146905 c -0.01325,0.07949 -0.0265,0.158987 -0.0265,0.238481 0,0.410716 0.225231,0.808183 0.437213,0.808183 h 0.07949 0.03975 c 0.07949,0.03975 0.503458,-0.25173 2.358304,-1.589869 z"
         id="path845" />
      <path
         d="m 85.372465,20.852281 -0.370969,0.23848 c -0.331223,0.225231 -0.556454,0.384218 -0.622698,0.423965 -0.278227,0.172236 -0.529956,0.291476 -0.596201,0.291476 -0.105991,0 -0.185484,-0.145738 -0.185484,-0.344472 0,-0.437213 1.099658,-5.233315 1.391134,-6.054747 0.291476,-0.794934 0.582952,-1.099659 1.059912,-1.099659 0.185485,0 0.304725,0.0265 0.60945,0.105991 l 0.463711,-0.741938 c -0.198733,-0.03975 -0.291476,-0.053 -0.423965,-0.053 -0.317973,0 -0.503458,0.053 -0.794934,0.225232 -0.331222,0.185484 -0.781685,0.529956 -1.152654,0.874427 -0.649196,0.622698 -0.688943,0.715441 -1.033414,2.080077 -0.01325,0.053 -0.053,0.238481 -0.105992,0.423965 -0.23848,-0.05299 -0.423964,-0.07949 -0.543204,-0.07949 -0.410716,0 -1.550122,0.71544 -2.080078,1.298392 -0.450462,0.516707 -1.046663,2.384802 -1.046663,3.298976 0,0.503458 0.264978,1.020166 0.503458,1.020166 0.251729,0 0.861179,-0.37097 2.225816,-1.364637 -0.06625,0.35772 -0.105992,0.702191 -0.105992,0.953921 0,0.264978 0.09274,0.410716 0.291476,0.410716 0.211983,0 1.364637,-0.702192 2.464296,-1.497126 z m -2.596784,0.05299 c -1.126157,0.794934 -1.417633,0.96717 -1.603117,0.96717 -0.185485,0 -0.278227,-0.185484 -0.278227,-0.582951 0,-0.437214 0.07949,-0.927423 0.23848,-1.523624 0.370969,-1.338139 0.900925,-2.000584 1.576619,-2.000584 0.251729,0 0.423965,0.09274 0.688943,0.35772 z"
         id="path847" />
      <path
         d="m 86.06139,21.686962 c 0.11924,0.304724 0.370969,0.71544 0.622698,1.020165 0.49021,-0.35772 0.60945,-0.450463 0.980419,-0.834681 -0.23848,-0.344471 -0.450463,-0.675694 -0.622698,-0.980418 -0.437214,0.35772 -0.768436,0.622698 -0.980419,0.794934 z m 0.688943,-1.165904 c 0.278227,-0.158986 0.291476,-0.158986 0.728689,-0.437213 L 87.744,19.30216 c 0.132489,-0.384219 0.25173,-0.768437 0.37097,-1.152655 0.794934,-2.424549 0.794934,-2.424549 1.099658,-3.338723 -0.11924,0.053 -0.23848,0.105991 -0.35772,0.172236 -0.158987,0.06624 -0.317973,0.145738 -0.463711,0.211982 l -0.357721,0.172236 c -0.23848,0.927423 -0.304724,1.179152 -0.450462,1.762104 -0.225232,0.900925 -0.410716,1.669361 -0.60945,2.451046 z"
         id="path849" />
    </g>
    <path
       style="fill:none;stroke:#7e82e1;stroke-width:0.743032;stroke-linecap:round;stroke-linejoin:miter;stroke-miterlimit:4;stroke-dasharray:none;stroke-opacity:1"
       d="m 22.556215,35.695469 c 29.054422,-22.854243 40.443237,17.802003 66.4635,-4.850437"
       id="path8573" />
  </g>
</svg>
